<?xml version="1.0" encoding="UTF-8" standalone="no"?>
<!-- Created with Inkscape (http://www.inkscape.org/) -->

<svg
   xmlns:dc="http://purl.org/dc/elements/1.1/"
   xmlns:cc="http://creativecommons.org/ns#"
   xmlns:rdf="http://www.w3.org/1999/02/22-rdf-syntax-ns#"
   xmlns:svg="http://www.w3.org/2000/svg"
   xmlns="http://www.w3.org/2000/svg"
   xmlns:sodipodi="http://sodipodi.sourceforge.net/DTD/sodipodi-0.dtd"
   xmlns:inkscape="http://www.inkscape.org/namespaces/inkscape"
   width="1485"
   height="765"
   id="svg2"
   version="1.1"
   inkscape:version="0.48.2 r9819"
   sodipodi:docname="nadim.pdf">
  <defs
     id="defs4" />
  <sodipodi:namedview
     id="base"
     pagecolor="#ffffff"
     bordercolor="#666666"
     borderopacity="1.0"
     inkscape:pageopacity="0.0"
     inkscape:pageshadow="2"
     inkscape:zoom="0.8532898"
     inkscape:cx="846.86344"
     inkscape:cy="284.78108"
     inkscape:document-units="px"
     inkscape:current-layer="layer1"
     showgrid="false"
     inkscape:window-width="1920"
     inkscape:window-height="1153"
     inkscape:window-x="0"
     inkscape:window-y="25"
     inkscape:window-maximized="1"
     width="1485px" />
  <metadata
     id="metadata7">
    <rdf:RDF>
      <cc:Work
         rdf:about="">
        <dc:format>image/svg+xml</dc:format>
        <dc:type
           rdf:resource="http://purl.org/dc/dcmitype/StillImage" />
        <dc:title></dc:title>
      </cc:Work>
    </rdf:RDF>
  </metadata>
  <g
     inkscape:label="Layer 1"
     inkscape:groupmode="layer"
     id="layer1"
     transform="translate(0,-287.36182)">
    <path
       style="fill:#000000;fill-opacity:1;fill-rule:nonzero;stroke:none"
       id="path3785"
       d="m 195.52592,357.4784 c -12.45378,3.68487 -24.17917,9.38494 -35.88082,14.92896 -25.90815,13.13879 -51.54611,26.80624 -77.229519,40.37787 -11.80334,6.38219 -23.779774,12.5299 -34.92934,20.03689 -4.71884,3.17719 -9.75781,6.89377 -13.761977,11.02295 -1.31164,1.35259 -2.360763,2.93707 -3.541145,4.40561 -0.545066,1.12878 -1.247422,2.19434 -1.635199,3.38634 -0.485099,1.49117 0.283211,6.61007 0.429762,7.90311 1.54938,13.67042 -0.12643,-3.16031 1.537727,14.42135 1.383034,20.07789 0.902287,40.22649 0.371954,60.32557 -0.538913,20.42428 -0.760992,24.63921 -1.552848,45.57385 -1.980713,50.81096 -4.366552,101.6027 -5.754245,152.43478 -1.072457,37.02808 0.457986,74.04028 2.142389,111.02158 0.612384,10.84055 0.851957,21.69444 1.029939,32.54863 -0.518102,10.90604 -15.94157,10.17333 -15.423469,-0.73271 l 0,0 c 1.207857,-10.51567 2.126288,-21.05492 2.150126,-31.6543 0.710646,-37.16387 0.787376,-74.3508 2.993286,-111.47042 2.713642,-50.70817 6.131635,-101.42723 5.763101,-152.23765 -0.433697,-34.53222 -0.778474,-69.34876 -7.176225,-103.40292 -0.58544,-2.64743 -1.158611,-5.29759 -1.756322,-7.94227 -1.503198,-6.65117 -3.5407548,-13.36335 -1.803146,-20.23429 1.426216,-5.6396 3.349585,-7.11277 6.841324,-11.53186 1.918638,-1.69749 3.732832,-3.52092 5.755913,-5.09248 5.077971,-3.94465 11.003342,-7.41215 16.589127,-10.51489 11.893487,-6.60648 24.250498,-12.32391 36.329438,-18.57183 12.34247,-6.41287 15.41834,-7.91182 27.630439,-14.65722 16.31371,-9.01093 32.29177,-18.60582 48.31634,-28.1158 2.722,-1.57926 14.14123,-8.2109 17.29988,-10.02058 5.74779,-3.29307 11.6271,-6.38553 17.15612,-10.04451 12.61213,-5.73279 20.71952,12.10346 8.10739,17.83624 z"
       inkscape:connector-curvature="0" />
    <path
       style="fill:#000000;fill-opacity:1;fill-rule:nonzero;stroke:none"
       id="path3813"
       d="m 188.85528,351.06296 c 5.69786,11.26142 12.7224,21.76819 19.79823,32.19267 9.79438,14.02279 21.18953,26.80997 32.97504,39.16846 3.68646,4.45939 8.93187,8.36966 12.06914,13.28074 0.45742,0.71605 0.82498,1.48569 1.23747,2.22853 1.84794,4.60662 1.68212,8.82793 -2.0619,12.83402 -1.89578,2.02847 -3.01086,2.20227 -4.85575,2.54913 1.20009,-0.44621 1.3272,-0.45724 2.91867,-1.72888 0.37319,-0.29818 0.5071,-0.83955 0.89351,-1.1204 0.21626,-0.15719 -0.26563,0.46846 -0.34695,0.72315 -0.32731,1.02505 -0.64603,2.05581 -0.87603,3.10699 -0.41253,1.88533 -0.69977,3.79592 -1.04965,5.69387 -0.33352,2.80289 -0.74963,5.59718 -1.00056,8.40867 -2.51153,28.13962 -1.30684,56.89063 -0.53449,85.08113 1.80694,50.68582 5.61382,101.26525 9.61062,151.8157 2.38927,29.6702 4.74586,59.34514 6.41872,89.06615 0.58703,10.42968 1.13434,22.67534 1.62383,33.18705 1.01648,19.57512 1.01881,39.18029 1.54164,58.76955 0.69234,4.04525 -0.46409,8.7561 1.10052,12.64289 -0.73184,13.96502 -20.48137,12.93005 -19.74953,-1.03497 l 0,0 c 0.91136,-1.34754 0.52695,-0.58404 0.97415,-3.17681 0.69822,-4.04805 0.61184,-4.26314 1.02974,-8.83795 1.46681,-19.39959 2.72088,-38.82277 3.39769,-58.26708 0.41394,-13.57609 0.66962,-19.01479 0.698,-32.95941 0.0604,-29.67461 -1.17638,-59.33576 -3.15988,-88.93984 -3.43014,-50.6385 -7.40905,-101.23815 -11.50886,-151.82647 -3.38088,-41.22992 -0.26458,-3.41469 -3.48588,-42.00057 -1.22612,-14.68687 -2.54265,-29.39129 -3.29394,-44.11331 -0.158,-3.09627 -0.20999,-6.19704 -0.31498,-9.29556 0.0726,-6.36672 -0.66948,-15.63023 4.0153,-20.8135 2.12246,-2.3483 3.04499,-2.56807 5.32431,-3.50461 2.37246,-0.87359 -2.13556,0.74688 -3.29923,2.08877 -2.23619,2.57869 -3.86277,6.33266 -2.00531,9.44659 0.11172,0.0484 0.33813,0.26694 0.33516,0.14521 -0.0116,-0.47668 -1.18528,-2.45802 -1.26815,-2.59527 -2.10236,-3.48194 -4.5564,-6.74114 -7.02434,-9.96685 -10.75,-13.83523 -21.86028,-27.38263 -32.62197,-41.20862 -1.87716,-2.4653 -3.75431,-4.93059 -5.63147,-7.39588 -1.71432,-2.23811 -3.43331,-4.47266 -5.14298,-6.71434 -3.49731,-4.58558 -6.88527,-9.28537 -10.64443,-13.66522 -0.65392,-0.76189 -1.35357,-1.48331 -2.03035,-2.22496 -7.80559,-11.27474 8.1393,-22.3135 15.94489,-11.03877 z"
       inkscape:connector-curvature="0" />
    <path
       style="fill:#000000;fill-opacity:1;fill-rule:nonzero;stroke:none"
       id="path3927"
       d="m 192.62585,372.45021 c -6.98309,-0.26102 -13.21656,3.35971 -19.13853,6.5877 -2.14443,1.42675 -4.33838,2.78175 -6.43329,4.28026 -5.55534,3.97378 -10.34207,7.968 -15.60067,12.35974 -9.02853,7.54019 -17.90659,15.26227 -26.81563,22.94248 -14.17756,12.04739 -28.398867,24.0642 -41.795847,36.98378 -1.66205,1.72995 -3.88573,3.96035 -5.46324,5.87019 -0.42502,0.51457 -0.86254,1.03136 -1.17536,1.62091 -0.0626,0.11798 0.0183,0.48113 0.11103,0.38497 2.35965,-2.44796 1.50447,-3.17261 1.80583,-7.17516 -4.42477,-6.16551 -2.36323,-5.81618 -8.79018,-7.20711 -0.99333,-0.21498 -2.27564,0.47438 -3.14144,0.62721 -0.23493,0.0415 0.40156,-0.28552 0.63642,-0.32733 1.91875,-0.34154 3.85962,-0.54433 5.78942,-0.8165 2.6699,2.1164 5.77005,3.78181 8.00969,6.34921 0.831,0.9526 0.61828,2.45852 0.76858,3.71369 0.16081,1.34294 0.0424,7.69419 0.0393,8.37603 -0.041,9.0642 -0.0278,6.2731 0.21376,16.5702 0.5397,20.50877 2.20423,40.96344 3.40317,61.43846 1.01554,17.34312 1.1067,20.58113 1.9037,38.0319 1.34418,37.24926 3.03191,74.48249 4.90535,111.70831 1.58349,28.28509 2.21407,56.60051 2.40367,84.9245 0.32628,16.98232 -0.96463,33.9203 -1.78107,50.86716 -6e-4,0.3837 -0.15926,5.7561 0.27142,6.82607 0.10202,0.25345 0.34806,-0.42121 0.52209,-0.63182 2.61835,13.42518 -16.36772,17.12808 -18.98606,3.7029 l 0,0 c -0.0328,-1.27095 -0.1723,-2.54364 -0.0983,-3.81286 0.15479,-2.65588 1.1175,-5.22752 1.25415,-7.88201 2.67486,-16.3072 4.70729,-32.72679 5.11911,-49.26716 1.00402,-28.09868 1.37406,-56.21676 0.56725,-84.32822 -0.89195,-37.21458 -2.0842,-74.42632 -3.82988,-111.61107 -0.93031,-16.28992 -1.08845,-21.49808 -2.56043,-37.67177 -1.85425,-20.37389 -4.70978,-40.63842 -7.9852,-60.8278 -0.78931,-4.54748 -1.9753,-11.581 -2.91549,-16.36249 -0.49745,-2.52986 -0.7998,-4.10237 -1.537332,-6.36664 -0.09415,-0.28904 0.148431,0.58959 0.222647,0.88439 2.502155,1.74981 5.004305,3.49961 7.506465,5.24942 1.70155,-0.30183 3.40113,-0.61501 5.10465,-0.90549 0.0852,-0.0145 -0.16623,0.048 -0.24758,0.0773 -1.43408,0.51587 -3.72176,1.59699 -5.40129,1.38735 -7.528897,-0.93979 -5.61998,-1.20652 -10.699863,-7.6531 0.05332,-2.03168 -0.271332,-4.10896 0.159967,-6.09505 1.076402,-4.95673 9.466256,-9.54728 13.039016,-12.51256 14.92763,-11.04484 29.539417,-22.51104 43.714217,-34.51038 8.8982,-7.66657 17.70625,-15.41147 26.38026,-23.33177 5.15385,-4.70601 10.37947,-9.68398 15.7258,-14.18612 2.30232,-1.93878 4.70515,-3.75496 7.05773,-5.63245 2.12213,-1.44765 4.19033,-2.97772 6.3664,-4.34295 5.99256,-3.75964 12.48761,-6.53629 19.43531,-7.90954 13.8616,-1.38616 15.82192,18.2171 1.96032,19.60326 z"
       inkscape:connector-curvature="0" />
    <path
       style="fill:#000000;fill-opacity:1;fill-rule:nonzero;stroke:none"
       id="path4031"
       d="m -129.64768,678.59037 c 5.99635,-3.42847 12.56378,-5.57391 19.12108,-7.63872 10.938187,-2.9645 22.232964,-4.28279 33.408876,-6.01825 19.842035,-3.26894 39.863879,-5.13694 59.906925,-6.60848 24.2804577,-1.62101 48.621521,-1.91476 72.94702,-2.09738 26.487947,-0.47955 52.951399,0.44779 79.395619,1.86158 30.78305,1.74229 61.58356,3.11857 92.38427,4.49969 36.56208,1.43864 73.11567,3.07197 109.68224,4.39629 43.29719,1.63128 86.62912,1.01675 129.94192,0.63683 48.209,-0.3815 96.39515,-1.60152 144.5629,-3.58494 8.46254,-0.32626 16.92497,-0.65542 25.38762,-0.97878 16.00165,-0.61142 36.04303,-1.40892 52.02652,-1.8194 27.27721,-0.70051 54.56372,-0.83529 81.84779,-1.00315 57.22991,0.34339 114.43466,-0.91096 171.61583,-3.15116 60.08637,-2.64769 120.06027,-7.24767 180.07507,-11.10365 57.0062,-3.56779 114.1168,-5.56885 171.2373,-5.62804 11.9947,-0.0124 23.989,0.15014 35.9834,0.22521 60.0866,0.70529 120.1545,3.95973 179.9164,10.29573 12.1643,1.28966 24.3004,2.83221 36.4505,4.24832 47.7533,5.78386 95.2249,13.57242 142.6494,21.55096 2.8294,0.48751 2.14,4.48895 -0.6894,4.00144 l 0,0 c -47.2935,-8.34117 -94.6617,-16.35992 -142.3761,-21.94947 -12.1277,-1.3877 -24.2419,-2.89902 -36.3832,-4.1631 -59.6606,-6.21152 -119.6151,-9.48449 -179.5891,-10.20149 -11.9746,-0.0612 -23.9491,-0.22186 -35.9238,-0.1835 -57.0414,0.18273 -114.0551,2.64968 -170.9549,6.58045 -60.0388,4.19881 -120.0514,8.92732 -180.1839,11.61984 -57.23527,2.33564 -114.49894,3.5978 -171.78564,3.47916 -27.23357,0.23818 -54.46372,0.48285 -81.68778,1.3025 -15.46567,0.46564 -36.49118,1.36288 -51.98249,2.00687 -8.45668,0.35155 -16.91307,0.70986 -25.36961,1.06478 -48.22979,2.12418 -96.47842,3.50524 -144.75325,4.08762 -43.41382,0.57303 -86.84412,1.29475 -130.25304,-0.008 -36.59933,-1.04855 -73.18784,-2.40571 -109.78193,-3.61709 -30.83326,-1.18347 -61.66126,-2.48498 -92.4788,-4.02941 -26.28159,-1.24111 -52.577494,-1.92189 -78.890809,-1.41627 -24.112312,0.20947 -48.2445051,0.44721 -72.304883,2.20329 -19.750351,1.64694 -39.467806,3.75265 -58.954169,7.45921 -10.624192,1.90161 -21.337341,3.50128 -31.754379,6.38335 -5.64427,1.85191 -11.43351,3.60439 -16.38699,6.9871 -6.85216,4.2826 -12.90867,-5.40782 -6.05651,-9.69042 z"
       inkscape:connector-curvature="0"
       transform="translate(0,287.36182)" />
    <text
       xml:space="preserve"
       style="font-size:64px;font-style:normal;font-variant:normal;font-weight:normal;font-stretch:normal;line-height:125%;letter-spacing:0px;word-spacing:0px;fill:#000000;fill-opacity:1;stroke:none;font-family:Bitstream Charter;-inkscape-font-specification:Bitstream Charter"
       x="1.6573662"
       y="752.56976"
       id="text4037"
       sodipodi:linespacing="125%"
       transform="translate(0,287.36182)"><tspan
         sodipodi:role="line"
         id="tspan4039"
         x="1.6573662"
         y="752.56976" /></text>
    <text
       xml:space="preserve"
       style="font-size:40px;font-style:normal;font-variant:normal;font-weight:normal;font-stretch:normal;line-height:125%;letter-spacing:0px;word-spacing:0px;fill:#000000;fill-opacity:1;stroke:none;font-family:Bitstream Charter;-inkscape-font-specification:Bitstream Charter"
       x="0.82868302"
       y="745.94031"
       id="text4041"
       sodipodi:linespacing="125%"
       transform="translate(0,287.36182)"><tspan
         sodipodi:role="line"
         id="tspan4043"
         x="0.82868302"
         y="745.94031"
         style="font-size:64px">        double_wait                         vanish_vanish         </tspan></text>
    <path
       id="path4051"
       d="m 499.30352,847.37119 c -6.1589,10.16901 -11.16755,20.97374 -16.24098,31.70848 -7.5881,16.80955 -15.33911,33.53945 -23.27166,50.18934 -4.33873,8.44621 -8.32995,17.09221 -13.01729,25.35551 -0.31421,0.49749 -0.62841,0.99498 -0.94262,1.49247 -3.32524,4.54208 -9.74871,-0.16052 -6.42347,-4.7026 l 0,0 c 0.26729,-0.29681 0.53459,-0.59362 0.80188,-0.89043 1.90133,-2.73316 3.50365,-5.61127 5.13875,-8.51175 2.91886,-5.1777 5.78507,-10.38512 8.54156,-15.65147 8.34698,-16.38194 16.22539,-32.98527 23.46068,-49.89143 4.86921,-11.02629 9.77494,-22.03371 14.91888,-32.935 2.71308,-4.97398 9.74735,-1.1371 7.03427,3.83688 z"
       inkscape:connector-curvature="0" />
    <path
       id="path4061"
       d="m 501.93719,845.88503 c -1.52153,13.6195 0.0618,27.35984 1.51637,40.91058 2.36348,18.77868 6.56741,37.26584 12.01199,55.37546 0.78953,1.63998 2.27955,8.5379 4.32886,9.38009 3.71163,4.25854 -2.31086,9.50757 -6.02248,5.24903 l 0,0 c -0.43983,-0.61607 -0.94971,-1.18771 -1.31948,-1.84821 -1.89255,-3.38057 -2.51608,-7.3279 -3.62641,-10.98004 -4.5287,-18.65749 -8.43818,-37.47248 -11.21202,-56.47793 -1.84694,-14.02351 -3.7302,-28.10032 -3.67246,-42.27528 0.47115,-5.65376 8.46677,-4.98746 7.99563,0.6663 z"
       inkscape:connector-curvature="0" />
    <path
       id="path4071"
       d="m 492.26832,844.08126 c 0.29696,-0.9679 0.62452,-1.92694 0.89087,-2.90371 1.79687,-6.58936 3.16237,-13.32092 4.6401,-19.98463 3.74853,-16.90371 0.8663,-4.302 5.136,-22.63734 5.56222,-24.72534 12.12658,-49.20209 19.42862,-73.46594 1.81843,-6.16174 3.93345,-12.22759 5.95096,-18.32503 1.81046,-4.80882 8.61116,-2.24843 6.8007,2.56038 l 0,0 c -2.46474,5.81512 -4.95317,11.62585 -6.94796,17.62554 -8.1189,23.82504 -14.94308,48.07179 -19.81009,72.78468 -0.81602,4.03546 -1.67492,8.06248 -2.44806,12.10638 -2.19938,11.50384 -3.87768,23.10028 -6.08163,34.60201 -1.67043,5.34538 -9.22994,2.98304 -7.55951,-2.36234 z"
       inkscape:connector-curvature="0" />
    <path
       id="path4081"
       d="m 525.82178,645.98656 c 3.47004,-3.30721 7.54969,-5.71815 11.95638,-7.53616 3.77681,-1.2227 7.74673,-1.55545 11.52676,-0.13328 0.72397,0.27238 1.40267,0.65255 2.10401,0.97882 3.73963,1.99005 6.87968,4.83873 9.62522,8.02723 3.14005,3.96532 4.68859,8.68592 5.63823,13.57914 0.66799,5.17123 0.0565,10.36792 -0.82793,15.47039 -0.82729,4.87497 -2.6262,9.40865 -5.05766,13.68477 -2.1393,3.70977 -5.09522,6.77277 -8.43042,9.41246 -2.97653,2.30338 -6.39336,3.78867 -9.94422,4.94487 -3.1482,0.94348 -6.41577,1.23179 -9.68095,1.38742 -3.4242,0.29241 -6.60647,-0.72683 -9.65043,-2.18423 -2.49271,-1.36685 -4.74936,-3.07248 -6.87675,-4.9446 -2.5028,-2.27361 -4.40068,-5.05482 -6.04999,-7.98088 -1.39594,-2.82874 -1.96363,-5.92589 -2.50299,-9.00323 -0.80345,-3.98094 -0.49787,-8.03546 0.0781,-12.01987 0.64129,-3.94892 2.32067,-7.58167 3.8432,-11.2424 1.34411,-3.2553 3.32559,-6.20415 5.18259,-9.18423 1.92766,-3.1544 4.49859,-5.61425 7.66766,-7.4707 2.14788,-1.10006 4.43888,-1.50374 6.81283,-1.68416 5.65449,-0.29138 6.06657,7.70528 0.41207,7.99666 l 0,0 c -1.14266,-0.012 -2.24597,0.23429 -3.30948,0.65778 -2.0799,1.06191 -3.63767,2.74352 -4.87377,4.71322 -1.65453,2.61338 -3.38104,5.22846 -4.61583,8.06879 -1.31525,3.02166 -2.71813,6.04154 -3.32653,9.30457 -0.48,3.11058 -0.73823,6.28591 -0.0685,9.3919 0.44985,2.23838 0.83581,4.50585 1.70782,6.62979 1.12642,2.1379 2.46984,4.14709 4.28162,5.77252 1.635,1.3928 3.30719,2.73513 5.16369,3.83097 1.82383,0.93962 3.71502,1.56016 5.79657,1.35762 2.54945,-0.0853 5.11109,-0.25557 7.57997,-0.94774 2.66573,-0.84348 5.25131,-1.93072 7.5058,-3.61729 2.5712,-1.9786 4.84274,-4.28142 6.51258,-7.08839 2.01637,-3.46133 3.50719,-7.14241 4.21757,-11.10558 0.72315,-4.18435 1.23585,-8.44249 0.7862,-12.68929 -0.66085,-3.55281 -1.68698,-7.0275 -3.93622,-9.93165 -2.02005,-2.37756 -4.38414,-4.49602 -7.11566,-6.02744 -2.4922,-1.31942 -4.51975,-1.46549 -7.26958,-0.68684 -3.46045,1.32354 -6.67797,3.16451 -9.17732,5.95366 -4.01964,4.01963 -9.70426,-1.66499 -5.68462,-5.68462 z"
       inkscape:connector-curvature="0" />
    <path
       id="path4111"
       d="m 518.11679,750.98946 c -7.82034,-6.09826 -14.76369,-13.22692 -21.69157,-20.29541 -10.21685,-10.85498 -20.4628,-21.67025 -30.95219,-32.26214 -6.27564,-6.41901 -12.80659,-12.58551 -19.49931,-18.56693 -3.40331,-2.95936 -5.07802,-6.1674 -0.32104,-9.56847 0.93694,-0.66988 4.29735,-0.59631 5.35436,-0.62178 9.09103,-0.0449 18.02913,-1.99394 26.90175,-3.77298 10.90039,-2.4614 21.78887,-5.2536 32.1002,-9.61377 4.86,-1.90306 7.55134,4.97002 2.69134,6.87308 l 0,0 c -10.88137,3.95419 -22.1199,6.81139 -33.3643,9.52943 -9.22539,2.0282 -18.48931,4.18447 -27.94475,4.76892 -3.72923,0.31867 -0.93752,0.36481 -0.53211,-2.68446 0.1025,-0.77093 -0.52575,-1.46402 -0.80472,-2.18998 -0.0539,-0.14012 0.086,0.28767 0.12896,0.4315 0.37298,0.42429 0.74595,0.84858 1.11893,1.27286 6.33668,6.47135 12.79265,12.82603 19.03306,19.39144 10.3253,10.70982 20.43827,21.61691 30.80944,32.28183 6.71986,6.54981 13.4763,13.27643 21.43737,18.32874 4.73629,3.15752 0.27087,9.85565 -4.46542,6.69812 z"
       inkscape:connector-curvature="0" />
    <path
       id="path4131"
       d="m 531.16242,661.26854 c -0.76431,1.7693 -0.34719,0.80849 -1.25331,2.88158 -2.21098,5.14522 -9.48743,2.01844 -7.27645,-3.12679 l 0,0 c 0.80834,-1.92086 0.41879,-0.91177 1.1541,-3.03286 2.31794,-5.21539 9.69361,-1.93731 7.37566,3.27807 z"
       inkscape:connector-curvature="0" />
    <path
       id="path4133"
       d="m 541.39498,660.05645 c -0.69308,2.12307 -1.38862,4.24473 -2.10333,6.36064 -1.72763,5.21026 -9.09604,2.76702 -7.36841,-2.44324 l 0,0 c 0.64612,-1.98862 1.30902,-3.97694 1.71761,-6.03217 1.49536,-5.483 9.24949,-3.36823 7.75413,2.11477 z"
       inkscape:connector-curvature="0" />
    <path
       id="path4139"
       d="m 522.23287,673.76308 c 3.73524,0.0622 7.59879,0.7932 10.55717,3.2447 0.63208,0.52379 1.14484,1.17682 1.71725,1.76523 1.59526,2.57398 0.97135,1.24828 1.91911,3.95444 1.53219,5.46481 -6.19622,7.63165 -7.72841,2.16684 l 0,0 c 0.0869,-0.4814 0.0822,-0.20174 -0.10131,-0.83295 -1.43371,-2.1139 -3.96522,-2.43642 -6.36381,-2.23025 -5.70494,0 -5.70494,-8.06801 0,-8.06801 z"
       inkscape:connector-curvature="0" />
    <path
       id="path4215"
       d="m 670.29516,833.75205 c -1.23113,12.13799 -1.72109,24.33179 -2.1467,36.51928 -0.39984,20.71189 -0.076,41.42915 0.29357,62.13892 0.0181,6.35723 0.33064,12.70203 0.80082,19.03902 0.17237,5.10906 -7.05293,5.35283 -7.22531,0.24377 l 0,0 c 0.0375,-6.41444 0.0132,-12.82907 0.12009,-19.24302 0.10853,-20.76887 -0.0154,-41.53679 -0.1191,-62.30544 0.079,-12.13035 0.30066,-24.26304 0.20862,-36.39253 0,-5.70494 8.06801,-5.70494 8.06801,0 z"
       inkscape:connector-curvature="0" />
    <path
       id="path4225"
       d="m 1266.0011,827.43403 c -7.288,14.29354 -13.8388,28.93968 -20.2789,43.62907 -7.5282,18.08065 -15.0852,36.15758 -21.8679,54.53423 -0.4372,1.30159 -0.8744,2.60318 -1.3116,3.90477 -1.8889,4.85377 -8.7532,2.18241 -6.8643,-2.67136 l 0,0 c 0.5717,-1.29067 1.1433,-2.58135 1.7149,-3.87202 8.0295,-17.89825 15.8608,-35.88686 23.1586,-54.09797 6.1046,-14.75731 12.3626,-29.46312 18.0833,-44.37308 2.0834,-5.20848 9.4493,-2.26212 7.3659,2.94636 z"
       inkscape:connector-curvature="0" />
    <path
       id="path4273"
       d="m 1267.7756,684.58912 c -0.081,0.81033 -0.1469,1.62233 -0.2432,2.431 -0.6947,5.83758 -1.5445,11.64786 -2.1147,17.50184 -0.9254,9.50088 -0.9882,11.98495 -1.6124,21.92556 -1.3867,24.95208 -0.026,49.93073 1.6272,74.83093 0.5098,7.4756 1.1214,14.94922 1.4219,22.43719 -0.1391,5.41112 -7.7916,5.21452 -7.6525,-0.19661 l 0,0 c 0.7291,-7.2903 0.2879,-14.63912 0.1458,-21.94814 -0.7482,-25.11784 -1.8585,-50.24563 -1.1777,-75.37937 0.2612,-9.25268 0.3345,-13.23705 0.726,-22.19845 0.2518,-5.76511 0.7494,-11.5424 0.8566,-17.31411 0.013,-0.69666 -0.03,-1.39323 -0.045,-2.08984 0,-5.70495 8.068,-5.70495 8.068,0 z"
       inkscape:connector-curvature="0" />
    <path
       id="path4279"
       d="m 1266.9973,823.72707 c 2.8293,7.24426 5.7099,14.46182 8.7381,21.62652 7.4422,16.79628 14.953,33.5593 22.029,50.51425 3.8987,9.22851 7.1509,18.7047 10.6789,28.07509 1.6418,5.12188 -5.6016,7.44385 -7.2435,2.32196 l 0,0 c -2.5315,-9.51005 -5.4553,-18.91512 -9.1361,-28.05152 -6.8852,-16.97882 -14.5428,-33.61239 -22.6239,-50.05513 -3.2985,-7.04022 -6.3911,-14.17793 -9.8182,-21.1531 -2.3179,-5.21538 5.0577,-8.49345 7.3757,-3.27807 z"
       inkscape:connector-curvature="0" />
    <path
       id="path4299"
       d="m 1247.4946,621.21425 c 3.9362,-3.27382 8.3441,-5.89517 12.783,-8.41604 3.2424,-1.58193 6.6883,-3.27003 10.3882,-3.32029 2.8589,-0.0389 3.4133,0.377 6.1362,1.22827 5.3136,2.38976 9.7149,6.42476 12.7976,11.36313 0.6266,1.00381 1.1295,2.07974 1.6942,3.11961 1.8388,4.04076 3.008,8.34329 3.37,12.77221 0.1866,2.28228 0.1202,4.20885 0.1002,6.48756 -0.1374,6.0304 -1.402,11.61654 -3.4986,17.23706 -1.2112,2.98265 -2.745,5.91759 -4.9767,8.2792 -1.4952,1.58226 -2.141,1.93263 -3.8621,3.17929 -3.9033,2.34738 -8.1817,3.9902 -12.4466,5.54975 -3.5157,1.25131 -7.1569,2.01668 -10.8728,2.28464 -3.672,0.37068 -7.1712,-0.22918 -10.6304,-1.42633 -3.81,-1.42154 -6.9712,-3.89344 -9.759,-6.79332 -3.196,-3.73296 -4.8072,-8.31315 -5.9616,-13.0087 -1.3167,-5.57405 -0.7166,-11.17695 0.3594,-16.72274 1.5731,-6.64781 4.35,-13.09736 8.7567,-18.38476 1.0304,-1.23634 2.2165,-2.33411 3.3248,-3.50116 3.8748,-3.33255 8.2209,-5.90391 13.1612,-7.30094 1.5142,-0.4282 3.0877,-0.60934 4.6315,-0.91401 5.1316,-0.92428 6.4388,6.33296 1.3071,7.25724 l 0,0 c -1.1692,0.18398 -2.3586,0.26798 -3.5077,0.55196 -3.8706,0.95659 -7.2592,2.92826 -10.2952,5.47377 -0.8876,0.91888 -1.8408,1.77862 -2.6627,2.75664 -3.72,4.42655 -5.9776,9.87003 -7.2367,15.46099 -0.8021,4.4826 -1.2819,8.99905 -0.245,13.49567 0.7867,3.36155 1.8771,6.68412 4.0913,9.4019 1.8952,2.03323 4.0894,3.74228 6.7111,4.74316 2.4049,0.90375 4.8433,1.23757 7.4153,0.99038 2.9801,-0.18726 5.9078,-0.81384 8.7464,-1.74374 3.6172,-1.2905 7.2444,-2.63803 10.5743,-4.57608 0.7045,-0.48218 1.7259,-1.12618 2.3412,-1.74923 1.6917,-1.71276 2.8466,-3.87491 3.7996,-6.05724 1.8191,-4.67096 2.9955,-9.5276 3.1059,-14.56751 0.073,-5.36257 -0.2624,-10.65419 -2.5597,-15.60635 -2.4196,-4.69606 -5.3218,-8.38661 -10.1981,-10.69567 -0.9052,-0.32865 -1.8777,-0.77564 -2.869,-0.81901 -2.6432,-0.11563 -5.129,1.19222 -7.4482,2.25599 -3.8239,2.14357 -7.6638,4.38209 -10.8586,7.4212 -4.0351,4.03511 -9.7416,-1.67139 -5.7065,-5.7065 z"
       inkscape:connector-curvature="0" />
    <path
       id="path4305"
       d="m 1273.6549,633.63811 c 0.092,1.94388 0.1907,3.88745 0.2883,5.83105 0.3216,5.51785 -7.4819,5.97253 -7.8034,0.45468 l 0,0 c -0.1221,-1.83154 -0.2302,-3.66692 -0.5117,-5.48304 -0.5676,-5.67587 7.4593,-6.47856 8.0268,-0.80269 z"
       inkscape:connector-curvature="0" />
    <path
       id="path4311"
       d="m 1256.408,654.98209 c 3.3081,0.8531 6.5923,2.34355 10.0618,1.77424 1.0311,-0.4578 1.933,-1.12332 2.8357,-1.78714 4.5845,-3.20179 9.1125,3.28163 4.528,6.48342 l 0,0 c -2.0591,1.39334 -4.0815,2.684 -6.5862,3.14673 -0.8344,0.0578 -1.6668,0.17871 -2.5031,0.17334 -3.4117,-0.0219 -6.6024,-1.28501 -9.9176,-1.88351 -5.5911,-1.11823 -4.0097,-9.02532 1.5814,-7.90708 z"
       inkscape:connector-curvature="0" />
    <path
       id="path4317"
       d="m 1261.1461,634.03945 c -0.1173,1.92979 -0.1128,3.86399 -0.1255,5.79637 0,5.52738 -7.8169,5.52738 -7.8169,0 l 0,0 c -0.013,-1.93238 -0.01,-3.86658 -0.1256,-5.79637 0,-5.70494 8.068,-5.70494 8.068,0 z"
       inkscape:connector-curvature="0" />
    <path
       id="path4349"
       d="m 1265.5904,694.75666 c 9.3505,2.10984 18.8762,3.28469 28.3939,4.32383 16.6937,1.70498 33.5065,2.59421 50.2806,1.68159 3.5036,-0.19063 6.996,-0.55073 10.494,-0.8261 12.8223,-1.37898 25.6311,-3.52375 37.9282,-7.47969 2.6512,-1.81904 1.5253,-1.32322 0.1872,6.84076 -0.037,0.22461 -0.4526,0.048 -0.679,0.072 -5.5315,-0.0894 -5.4051,-7.91214 0.1264,-7.82277 l 0,0 c 1.1719,0.0466 2.9854,-0.90636 3.5156,0.13973 3.7787,7.45545 2.2201,7.26775 -1.2403,8.18052 -13.0354,2.57944 -26.1315,4.92321 -39.3952,5.98844 -3.5833,0.2545 -7.1623,0.5781 -10.7498,0.7635 -17.0256,0.87988 -34.0812,0.25912 -51.0736,-0.94996 -9.7309,-0.73201 -19.4326,-1.71365 -29.1066,-3.00031 -5.5942,-0.93238 -4.2757,-8.84387 1.3186,-7.9115 z"
       inkscape:connector-curvature="0" />
    <path
       id="path4353"
       d="m 1338.7631,562.02088 c -2.6191,12.82352 -2.9024,25.96999 -3.0889,39.00922 0.4482,14.55352 -0.076,29.38319 2.996,43.7024 0.7868,5.21852 -6.5933,6.33124 -7.3801,1.11272 l 0,0 c -1.3954,-14.9093 -1.5018,-29.88986 -1.7772,-44.85178 -0.03,-13.40821 0.1176,-26.82588 1.3442,-40.18887 0.8601,-5.59039 8.7661,-4.37408 7.906,1.21631 z"
       inkscape:connector-curvature="0" />
    <path
       id="path4363"
       d="m 1332.3195,549.58771 c 9.1161,1.0698 18.3439,0.7268 27.4945,0.39983 20.3478,-1.0879 40.6908,-2.32821 61.0129,-3.82533 12.4648,-0.87036 24.9022,-2.10231 37.312,-3.55346 1.7036,-0.1891 3.4068,-0.39173 5.1141,-0.54569 0.535,-0.0482 1.0772,-0.20581 1.6071,-0.11782 0.7484,0.12427 1.4759,0.35167 2.2138,0.5275 0.7574,0.84047 1.7332,1.52662 2.272,2.52142 0.9005,1.66248 0.4282,7.42356 0.3809,9.14567 -0.2194,7.99541 -0.1266,2.93916 -0.22,12.02503 -0.1325,11.98026 0.074,23.97172 1.2823,35.8998 0.7088,6.99412 1.3394,10.75858 2.3525,17.63884 1.1065,6.46844 2.3328,12.91824 3.9213,19.28732 0.7592,3.04352 1.6401,6.02487 2.2598,9.10037 -0.1188,2.61688 0.2891,3.72128 -2.5514,5.66918 -1.8683,1.28122 -4.9199,0.77142 -6.912,0.50498 -3.0078,-0.40231 -5.9879,-0.99091 -8.9826,-1.48171 -15.7858,-2.43568 -31.7354,-3.14297 -47.6803,-3.45558 -15.8214,0.0506 -31.6326,1.21066 -47.3317,3.13367 -6.9001,0.79752 -13.7239,2.10688 -20.5853,3.16339 -1.6584,0.24554 -3.3273,0.42494 -5.001,0.52432 -0.9167,0.0544 -0.5462,-0.0622 -0.9847,0.0997 -1.1515,0.13656 -2.4816,0.86013 -3.6558,0.53952 -0.9325,-0.25463 -1.7699,-0.7781 -2.6549,-1.16714 -1.5382,-5.13815 -1.7624,-4.41819 1.1125,-7.95926 3.4078,-4.47504 9.7365,0.34438 6.3286,4.81941 l 0,0 c -1.6945,2.42181 -0.5254,1.06876 -0.6676,0.61419 -0.3919,-1.25215 -0.9209,-2.45721 -1.3813,-3.68582 -2.5609,-0.91971 -1.42,-0.92069 -2.8485,-0.7004 -0.1522,0.0235 0.3041,-0.0498 0.4556,-0.078 0.6896,-0.12816 1.3703,-0.29953 2.0618,-0.41878 2.0767,-0.25854 4.1778,-0.13734 6.2599,-0.39037 6.955,-0.66024 13.8705,-1.67987 20.8349,-2.2492 16.0143,-1.42013 32.0851,-2.39191 48.1652,-2.49532 16.2101,0.24138 32.4149,0.83456 48.5414,2.6049 2.9143,0.31784 5.7675,0.64774 8.6819,0.90627 0.6115,0.0543 1.2617,-0.0845 1.8372,0.12939 0.164,0.0609 -0.1874,0.2973 -0.2551,0.45863 -0.9124,2.17554 -1.5516,2.10771 -0.5375,2.08089 -0.2606,-2.98746 -0.8984,-5.8704 -1.4516,-8.81779 -1.2381,-6.59673 -2.2795,-13.22628 -3.2934,-19.86073 -0.8502,-6.52163 -1.5365,-11.41134 -2.1886,-17.99877 -1.1954,-12.07385 -1.5441,-24.19658 -1.9224,-36.31696 -0.157,-4.01017 -0.2799,-8.02169 -0.4505,-12.0313 -0.08,-1.88342 -0.3316,-3.75824 -0.3767,-5.64283 0,-0.0457 0.09,-0.0162 0.135,-0.0243 0.5717,0.46001 1.1435,0.92001 1.7152,1.38002 0.452,0.0482 0.9079,0.0678 1.3559,0.14458 0.1896,0.0325 -0.3847,-0.01 -0.5771,-0.011 -0.2736,-0.002 -0.5473,7e-4 -0.821,0.002 -1.6615,0.009 -3.3222,0.0555 -4.9828,0.11205 -12.5035,0.43602 -24.9872,1.27751 -37.4793,1.94834 -20.3713,1.2786 -40.7345,2.64508 -61.0661,4.46434 -9.5069,0.6749 -19.0418,1.25086 -28.5775,0.99392 -5.6654,-0.51504 -4.937,-8.52714 0.7284,-8.0121 z"
       inkscape:connector-curvature="0" />
    <path
       id="path4367"
       d="m 1406.1329,648.42444 c -0.7437,11.71872 -1.5402,23.43279 -2.1729,35.15873 -0.9782,19.02555 -1.1291,38.07601 -0.5898,57.11566 0.2637,11.33652 1.1487,22.65725 2.6672,33.89407 0.095,0.69018 0.1894,1.38037 0.2841,2.07055 0.3874,5.53609 -7.4418,6.08386 -7.8292,0.54777 l 0,0 c 0,-0.63079 0,-1.26158 0.01,-1.89237 -0.672,-11.48998 -1.5206,-22.97485 -1.4971,-34.49323 -0.2224,-19.17069 0.052,-38.33843 0.63,-57.50159 0.3256,-11.62383 0.9354,-23.27473 0.4984,-34.89959 0,-5.65853 8.0024,-5.65853 8.0024,0 z"
       inkscape:connector-curvature="0" />
    <path
       id="path4427"
       d="m 520.67214,743.25916 c 8.86974,-3.43695 17.46609,-7.54318 26.05687,-11.61502 18.46899,-8.96681 37.17002,-17.43541 55.91543,-25.80391 7.15522,-3.16684 14.38106,-6.17308 21.53767,-9.33664 2.81973,-1.24645 5.8936,-2.42011 8.47365,-4.14884 -0.47261,2.07909 -0.94521,4.15819 -1.41782,6.23729 -4.09644,-4.11777 1.72696,-9.91101 5.8234,-5.79324 l 0,0 c -0.31798,2.23452 -0.63596,4.46904 -0.95395,6.70357 -10.42565,3.74165 -20.82038,7.57856 -31.03916,11.86203 -18.76411,8.08926 -37.34665,16.59737 -55.41054,26.16747 -8.50942,4.43416 -17.04442,8.81767 -25.66584,13.03064 -5.16425,2.34738 -8.48396,-4.95597 -3.31971,-7.30335 z"
       inkscape:connector-curvature="0" />
    <path
       id="path4453"
       d="m 631.81188,699.88187 c -9.77377,-4.7395 -20.2805,-7.80712 -30.55427,-11.26574 -10.12736,-3.39991 -20.11576,-7.2636 -29.71484,-11.96727 -5.17149,-2.53411 -6.61834,-3.44027 -11.46982,-6.184 -4.38212,-2.45039 -8.3038,-5.53519 -12.08356,-8.80749 -4.01465,-3.78804 1.34243,-9.46561 5.35708,-5.67758 l 0,0 c 3.09306,3.21444 6.43345,6.13548 10.26354,8.46808 4.54775,2.78207 5.86277,3.69524 10.7727,6.21404 9.26772,4.75436 19.01656,8.50135 28.92456,11.6817 10.63367,3.3698 21.37735,6.43482 31.84599,10.29862 5.1192,2.36271 1.77782,9.60235 -3.34138,7.23964 z"
       inkscape:connector-curvature="0" />
    <path
       id="path4461"
       d="m 1258.3753,706.78487 c -11.2068,1.55602 -21.3475,6.9082 -31.2434,12.0782 -11.5539,6.41105 -23.0398,12.93861 -34.6848,19.18447 -3.5299,1.94032 -7.0322,3.94946 -10.4256,6.12257 -1.4298,0.91565 -2.8649,1.83202 -3.988,3.11546 1.7532,-1.46485 0.9675,-0.5027 0.1794,-5.04008 -0.032,-0.18571 -0.5702,-0.4031 -0.3822,-0.41677 0.7295,-0.053 5.7198,1.7888 6.2857,1.99315 9.5299,3.92697 17.8692,10.12186 26.0844,16.2314 12.9739,9.78405 25.642,19.96511 38.2818,30.17472 1.3662,1.08646 2.7486,2.15282 4.0985,3.25938 2.9117,2.38667 8.2699,5.74209 2.3712,10.37269 -1.3246,1.03986 -3.3217,-0.55691 -4.9825,-0.83537 -5.1264,-2.15239 -2.0825,-9.40224 3.0439,-7.24986 l 0,0 c -3.4674,1.56666 -0.5199,-0.24512 -2.4345,6.50591 -0.094,0.33291 -0.1823,-0.68714 -0.3952,-0.95997 -0.6697,-0.85847 -1.44,-1.63661 -2.2219,-2.39443 -1.2442,-1.20598 -2.5673,-2.32785 -3.851,-3.49177 -12.1246,-10.5828 -24.7131,-20.62503 -37.8531,-29.92563 -7.7914,-5.46459 -15.7146,-10.98873 -24.661,-14.41212 -2.5951,-0.85088 -1.7577,-0.64904 -4.2958,-1.21353 -0.9544,-0.21226 -3.9878,-0.68369 -4.5076,-1.54404 -2.6714,-4.42154 -1.9937,-4.42354 -0.113,-7.01396 4.9774,-3.96796 10.975,-6.45876 16.4827,-9.56881 11.7754,-5.97732 23.3627,-12.2976 34.877,-18.76324 10.6837,-5.67145 21.5265,-11.35554 33.4105,-14.06645 5.5565,-0.65371 6.481,7.20437 0.9245,7.85808 z"
       inkscape:connector-curvature="0" />
    <text
       xml:space="preserve"
       style="font-size:36px;font-style:normal;font-variant:normal;font-weight:normal;font-stretch:normal;line-height:125%;letter-spacing:0px;word-spacing:0px;fill:#000000;fill-opacity:1;stroke:none;font-family:Bitstream Charter;-inkscape-font-specification:Bitstream Charter"
       x="589.1936"
       y="768.12354"
       id="text4465"
       sodipodi:linespacing="125%"><tspan
         sodipodi:role="line"
         x="589.1936"
         y="768.12354"
         id="tspan4469">    Still</tspan><tspan
         sodipodi:role="line"
         x="589.1936"
         y="813.12354"
         id="tspan4473">Searching</tspan></text>
    <text
       xml:space="preserve"
       style="font-size:36px;font-style:normal;font-variant:normal;font-weight:normal;font-stretch:normal;line-height:125%;letter-spacing:0px;word-spacing:0px;fill:#000000;fill-opacity:1;stroke:none;font-family:Bitstream Charter;-inkscape-font-specification:Bitstream Charter"
       x="1341.6378"
       y="588.29932"
       id="text4475"
       sodipodi:linespacing="125%"><tspan
         sodipodi:role="line"
         id="tspan4477"
         x="1341.6378"
         y="588.29932">No Bug</tspan><tspan
         sodipodi:role="line"
         x="1341.6378"
         y="633.29932"
         id="tspan4479">Found!</tspan></text>
    <path
       id="path4493"
       d="m 584.26664,727.54146 c 8.42687,3.42583 17.77783,3.76002 26.73983,4.28881 24.21765,0.69842 48.43369,-0.85723 72.61172,-2.07299 20.14387,-0.93473 40.27687,-2.1222 60.42245,-3.0159 1.80901,1.12669 4.27386,-0.7788 6.1923,-0.0171 1.21195,0.48118 2.18145,1.42924 3.27218,2.14386 2.96037,4.98613 -4.09108,9.17272 -7.05145,4.1866 l 0,0 c 6.25686,3.206 0.50573,0.31722 -2.36518,0.70611 -20.06812,-0.63387 -40.15382,0.39553 -60.20116,1.21769 -9.65172,0.50968 -17.8691,0.93158 -27.51254,1.48861 -15.19532,0.87772 -30.39264,1.95055 -45.62347,1.89025 -9.97317,-0.19984 -20.1717,-0.3661 -29.76275,-3.44024 -5.21538,-2.31795 -1.93731,-9.69362 3.27807,-7.37567 z"
       inkscape:connector-curvature="0" />
    <path
       id="path4543"
       d="m 754.94131,731.20386 c 0.0594,0.85257 0.14877,1.70358 0.17811,2.55771 0.18732,5.45202 -0.0537,10.92263 -0.22464,16.37009 -0.41067,13.08829 -0.14559,3.90879 -0.52994,18.00998 -0.41684,17.15846 0.40386,34.31518 1.75544,51.41592 0.36402,4.86344 0.19072,2.69866 0.50664,6.49537 0.0579,5.48763 -7.70278,5.56951 -7.76067,0.0819 l 0,0 c 0.24012,-3.61972 0.13977,-1.54113 0.22323,-6.23906 -0.3007,-17.27859 -0.96542,-34.55141 -0.89046,-51.8355 -0.005,-5.65584 0.009,-12.26496 -0.0668,-17.96357 -0.0683,-5.12052 -0.10057,-10.32168 -0.73414,-15.41565 -0.0852,-0.68529 -0.24613,-1.35903 -0.3692,-2.03854 -1.01726,-5.59496 6.8952,-7.03359 7.91247,-1.43863 z"
       inkscape:connector-curvature="0" />
    <path
       id="path4547"
       d="m 587.57864,731.87888 c 0.11083,0.96298 0.26132,1.92222 0.33248,2.88894 0.41928,5.69604 0.18952,11.46231 0.0395,17.16222 -0.15418,5.85765 -0.37481,11.71338 -0.55627,17.57025 -0.36749,15.77747 -0.85557,31.55105 -1.33321,47.32535 0.0242,3.21317 -0.3742,6.43766 -0.14747,9.65151 0.0426,0.60432 0.23189,3.00939 0.50986,2.01843 2.37003,5.22409 -5.01795,8.57582 -7.38799,3.35173 l 0,0 c -0.19216,-0.56814 -0.43894,-1.12064 -0.57649,-1.70441 -1.03866,-4.40823 0.44862,-9.30734 0.47911,-13.72746 1.33236,-15.64841 2.10877,-31.3379 2.19463,-47.04578 0.087,-8.12627 0.2124,-16.24678 -0.10883,-24.37005 -0.12403,-3.13648 -0.24717,-5.93143 -0.73363,-8.99731 -0.11666,-0.73524 -0.32567,-1.45281 -0.48851,-2.17922 -1.37476,-5.49904 6.40207,-7.44325 7.77683,-1.9442 z"
       inkscape:connector-curvature="0" />
    <path
       id="path4589"
       d="m 750.52265,835.08818 c -11.32346,-4.21032 -23.77883,-4.28263 -35.69977,-4.74065 -20.73961,-0.30713 -41.51897,-0.29219 -62.23846,0.81726 -4.19907,0.22485 -8.3918,0.55546 -12.58769,0.83319 -3.93826,0.36222 -7.88256,0.66387 -11.81478,1.08664 -7.69588,0.82742 -12.27079,1.51861 -19.75981,2.80671 -6.2823,1.08055 -12.49706,2.36911 -18.80988,3.25965 -2.72708,0.13089 -4.26652,0.4193 -6.88047,-0.18253 -0.79429,-0.18288 -1.52593,-0.57353 -2.2889,-0.86029 -5.03026,-2.58461 -1.37507,-9.69848 3.6552,-7.11387 l 0,0 c 0.013,0.11192 -0.0618,0.28513 0.0389,0.33575 1.46289,0.73579 3.14425,0.5589 4.70818,0.63251 6.28212,-0.44062 12.44266,-1.3825 18.68393,-2.22107 8.38404,-1.12647 11.50956,-1.52423 20.17436,-2.29053 3.98103,-0.35208 7.96894,-0.62149 11.95341,-0.93223 25.07532,-1.45211 50.18714,-2.12808 75.30434,-2.2444 12.97893,0.0974 26.28876,-0.0793 38.88118,3.5105 5.16425,2.34739 1.84454,9.65074 -3.31971,7.30336 z"
       inkscape:connector-curvature="0" />
    <path
       id="path4609"
       d="m 185.73426,340.85121 c 3.51531,-0.82947 4.37672,-1.32477 8.37139,-0.73885 6.04247,0.88627 11.65233,4.45422 16.80317,7.45044 2.53674,1.47561 5.03965,3.00862 7.55948,4.51293 15.596,9.32997 31.2587,18.55646 47.21546,27.25987 10.11334,5.51621 19.91748,10.59647 30.12334,15.94239 22.89938,11.94124 46.23492,23.0264 69.90511,33.34959 6.43252,3.12241 13.3435,5.20628 19.72588,8.42704 0.0793,0.57434 3.40989,1.69774 3.89793,2.16793 1.1975,1.1537 2.33507,2.36805 3.5026,3.55208 0.50492,1.61445 1.31832,3.16323 1.51476,4.84336 0.33021,2.8244 -0.83089,4.76829 -1.84132,7.15308 -1.04436,2.46491 -0.92582,2.42409 -1.8405,5.45127 -5.16312,21.2773 -4.98192,43.41341 -5.20699,65.17128 0.37946,36.50585 1.2679,73.00656 2.10392,109.50483 0.82825,35.08123 2.41427,70.13736 3.15647,105.22076 0.47177,15.70661 0.32886,31.44166 1.24219,47.13472 0.3602,6.18885 0.69523,8.56567 1.35361,14.4799 0.56204,12.02711 -16.44685,12.82195 -17.0089,0.79485 l 0,0 c 0.30356,-20.81647 1.40774,-41.60321 2.13472,-62.40767 0.10687,-5.07128 0.26118,-10.14179 0.3206,-15.21386 0.35067,-29.92894 -0.77468,-59.85062 -1.35867,-89.7688 -0.88855,-36.53626 -2.23578,-73.05514 -3.96222,-109.56159 -0.4987,-12.30304 -0.77121,-18.18544 -1.135,-30.29882 -0.38603,-12.85371 -0.75885,-25.7485 0.28285,-38.58348 0.62573,-5.31134 0.32646,-3.58863 1.16513,-8.12679 0.0981,-0.5306 0.22321,-1.05616 0.31233,-1.58833 0.027,-0.16144 0.0472,-0.65303 0.0357,-0.48975 -0.3103,4.38857 -0.53024,1.98981 1.24891,7.08773 6.64232,6.33693 1.80554,1.73328 -0.0252,0.59756 -5.44869,-4.06684 -11.40996,-7.43046 -17.04742,-11.21628 -22.07987,-13.3982 -44.78391,-25.731 -67.66824,-37.69474 -26.2167,-13.52854 -52.58118,-26.81757 -79.47082,-38.96545 -4.7024,-2.04 -8.45764,-3.78839 -13.19525,-5.46885 -1.11868,-0.3968 -2.26231,-0.72273 -3.40987,-1.02603 -0.45986,-0.12154 -0.96659,-0.0633 -1.40546,-0.24665 -0.0478,-0.02 0.77454,-0.26019 0.79554,-0.26651 -13.03846,5.79487 -21.23364,-12.64429 -8.19519,-18.43916 z"
       inkscape:connector-curvature="0" />
    <path
       id="path4741"
       d="m 201.95547,64.930709 c 9.45941,5.897839 17.93839,13.248037 26.53157,20.312312 18.0367,15.026079 36.20243,29.897689 54.41102,44.714869 8.91656,7.16752 17.72654,14.46567 26.40605,21.91812 8.51795,9.41763 -4.8006,21.46383 -13.31854,12.04619 l 0,0 c -0.82853,-1.26358 -1.55324,-2.60169 -2.48557,-3.79075 -5.67565,-7.23848 -12.76656,-13.23639 -19.54925,-19.37531 -17.74999,-14.97711 -35.93965,-29.449 -55.0257,-42.701604 -5.73465,-3.864164 -11.42556,-7.787296 -17.4573,-11.18235 -1.18544,-0.667247 -4.2361,-2.302601 -5.80503,-2.926523 -0.38001,-0.15112 -0.78838,-0.217785 -1.18257,-0.326678 -13.2146,-5.285842 -5.73929,-23.974118 7.47532,-18.688276 z"
       inkscape:connector-curvature="0"
       transform="translate(0,287.36182)" />
    <path
       id="path4757"
       d="m 315.02693,449.60208 c 0.0345,10.24435 0.0814,20.48761 -0.008,30.73484 -0.55394,28.9503 -0.5393,57.90525 -0.48178,86.85933 -0.0823,37.81754 0.46621,75.62931 0.99195,113.44162 0.45285,28.99103 0.96783,57.97996 1.23201,86.97348 0.35418,17.5001 0.95578,34.99359 1.40798,52.49127 0.29057,11.64702 -0.34807,23.28031 -0.85061,34.9104 -0.28595,6.98308 -0.46192,13.97128 -0.23547,20.95797 0.31987,0.78033 -0.34897,4.85889 0.50814,3.31097 1.63178,14.23371 -18.49774,16.54139 -20.12951,2.30767 l 0,0 c 0.0389,-1.99018 0.25859,-3.92521 0.39217,-5.91196 0.44579,-7.29363 0.66885,-14.60207 1.36767,-21.87886 1.01482,-11.17384 2.12913,-22.35318 2.22006,-33.58406 0.21933,-17.60699 0.4312,-35.2158 1.05562,-52.8143 1.11896,-28.89669 2.18559,-57.79607 2.35163,-86.71829 0.21316,-37.7654 -0.15669,-75.53946 -1.08495,-113.29391 -0.97147,-28.81795 -2.26867,-57.6333 -4.84782,-86.35907 -0.95309,-9.99419 -1.72626,-20.0585 -3.83411,-29.89288 -1.08486,-14.10317 18.86004,-15.63739 19.9449,-1.53422 z"
       inkscape:connector-curvature="0" />
    <path
       id="path4799"
       d="m 193.27168,83.810432 c -0.1624,8.085757 0.16008,16.177197 0.22866,24.264988 -0.01,19.41225 -0.71651,38.81706 -1.47341,58.21197 -1.45373,29.08941 -1.04595,58.21507 0.0125,87.30682 1.33811,30.43757 3.47186,60.83086 4.9573,91.26101 0.9975,27.62818 2.88761,55.20594 4.8896,82.77553 1.58538,20.47975 2.39637,41.00348 3.44828,61.51331 0.43271,10.29613 1.42962,20.5607 1.91102,30.85306 -0.26148,1.32748 -0.52296,2.65496 -0.78445,3.98244 -5.79114,13.11213 -24.33449,4.92222 -18.54335,-8.18991 l 0,0 c -0.044,0.83502 -0.088,1.67004 -0.13194,2.50506 1.00153,-2.87954 1.05047,-6.0684 1.1719,-9.09016 0.26303,-6.54596 0.13654,-13.10511 0.20224,-19.65354 0.0128,-20.37047 0.21034,-40.75081 -0.82993,-61.10436 -1.32101,-27.67758 -3.16491,-55.3307 -3.99675,-83.03134 -1.20671,-30.45829 -2.75553,-60.89891 -4.38948,-91.33699 -1.27896,-29.31802 -2.00367,-58.65831 -1.96409,-88.00629 -0.16356,-19.05898 -0.23324,-38.1508 -1.77972,-57.159 -0.69886,-7.72633 -1.42977,-15.489319 -2.99559,-23.095877 -1.41897,-14.189664 18.64825,-16.196385 20.06721,-2.006721 z"
       inkscape:connector-curvature="0"
       transform="translate(0,287.36182)" />
    <path
       id="path4827"
       d="m 190.05462,381.78793 c -6.21557,7.26834 -12.32382,14.62443 -18.33997,22.05844 -7.98534,9.85797 -15.2742,20.23531 -21.53215,31.27054 -2.49703,4.8522 -4.90249,9.82593 -6.31123,15.12215 -0.60209,2.26358 -1.20307,5.6069 -1.63119,7.80907 -3.56821,23.16634 -5.03731,46.58712 -6.38514,69.96613 -1.43025,27.37863 -1.6013,54.81399 -0.62768,82.21108 0.65326,18.38217 1.22459,25.50749 2.37404,43.81984 2.73021,38.06771 6.30292,76.06735 9.82037,114.06831 2.24895,22.6837 3.99047,45.40995 5.21401,68.17092 0.4975,10.24423 0.69699,20.49663 0.74827,30.75111 0.24471,0.84171 -0.32917,5.55583 0.23586,6.312 0.1192,0.15952 0.24046,-0.36819 0.19956,-0.56308 -0.24914,-1.18703 -0.13303,-2.68917 -1.04903,-3.4842 -2.43476,-2.11322 -5.61954,-3.16161 -8.42931,-4.74242 -1.5092,0.43498 -3.0184,0.86996 -4.52761,1.30494 11.90589,-7.94983 23.14864,8.88765 11.24275,16.83747 l 0,0 c -1.98247,0.75099 -3.96494,1.50199 -5.94742,2.25298 -3.18065,-1.56685 -6.79689,-2.45641 -9.54196,-4.70054 -1.23255,-1.00762 -1.28777,-2.92814 -1.67769,-4.47165 -0.73021,-2.8906 0.68823,-6.67667 0.74695,-9.60076 0.99583,-9.89708 0.96738,-19.85675 1.49444,-29.78442 0.92279,-22.47416 1.12082,-44.96962 -0.27084,-67.43536 -2.05947,-38.14861 -4.58146,-76.26873 -6.89322,-114.40254 -2.36576,-42.23576 -4.48607,-84.5013 -4.25704,-126.81943 -0.12094,-15.29011 -0.21687,-30.58032 -0.33803,-45.87043 -0.0316,-3.98262 -0.15293,-14.94831 -0.0729,-19.41472 0.0422,-2.35448 0.17935,-4.7063 0.26902,-7.05945 0.54881,-4.71946 0.5479,-6.42334 1.81208,-10.92328 1.84938,-6.58299 5.36756,-12.55322 8.78818,-18.40887 7.15458,-11.23917 14.85382,-22.10352 22.96463,-32.67454 4.55305,-6.22124 2.9612,-3.99799 7.28052,-10.08247 2.79506,-3.93732 5.73406,-7.85076 7.76528,-12.25638 7.59402,-11.93345 24.47046,-1.19389 16.87645,10.73956 z"
       inkscape:connector-curvature="0" />
    <path
       id="path4879"
       d="m 987.38141,742.67157 c -1.56852,0.25566 -3.17268,0.34755 -4.70555,0.76697 -6.40594,1.75279 -13.09611,4.73231 -18.88474,7.77779 -9.84714,5.1807 -18.93665,11.09019 -27.95183,17.62362 -5.21427,3.77887 -10.20813,7.8529 -15.3122,11.77935 -14.67839,11.78998 -28.31218,24.77545 -41.91974,37.75927 -3.48869,3.32877 -16.5752,15.93825 -20.72721,19.64309 -2.69685,2.4064 -5.53283,4.65217 -8.29925,6.97826 -3.47699,2.472 -9.08255,6.90305 -13.37354,8.41934 -2.38453,0.8426 -4.96093,0.9864 -7.44139,1.47961 -18.93275,0.0821 -19.04885,-26.69285 -0.11611,-26.77495 l 0,0 c -0.30334,0.48377 -1.41561,1.1859 -0.91003,1.45129 2.10905,1.10712 9.07638,-2.09083 9.65621,-2.29742 2.77347,-1.48286 5.63843,-2.80601 8.32039,-4.44857 7.37677,-4.51791 15.80875,-10.94288 22.46667,-16.23055 14.88444,-11.82109 29.02199,-24.53875 43.39603,-36.96286 21.57746,-18.57488 43.08396,-37.51793 67.18719,-52.80954 18.27532,-6.0918 26.89049,19.7535 8.6151,25.8453 z"
       inkscape:connector-curvature="0" />
    <path
       id="path4905"
       d="m 1006.9421,736.32437 c -0.5212,1.09413 -1.0955,2.16446 -1.5634,3.28238 -3.1937,7.63078 -5.49774,15.70493 -7.90315,23.60064 -3.17467,10.42076 -4.66859,15.74938 -7.75187,26.42493 -7.44202,24.70207 -13.06632,49.8571 -18.5059,75.05322 -0.37723,1.86402 -0.75447,3.72805 -1.13171,5.59208 -7.12559,16.6301 -30.64411,6.553 -23.51852,-10.07711 l 0,0 c 0.88418,-1.07993 1.76835,-2.15985 2.65253,-3.23978 1.12936,-2.1788 2.37953,-4.29913 3.3881,-6.53641 2.96662,-6.5808 5.78827,-14.75949 7.96298,-21.52199 4.59703,-14.29493 8.38748,-28.83638 11.55854,-43.51139 3.57568,-18.45052 7.07432,-37.01172 7.68851,-55.84754 4.79487,-19.17948 31.91869,-12.39851 27.12389,6.78097 z"
       inkscape:connector-curvature="0" />
    <path
       id="path4909"
       d="m 1014.7769,727.7464 c -2.7511,19.42295 -3.1674,39.05723 -3.178,58.64076 0.3397,13.35323 1.2531,26.72506 3.7104,39.87445 1.2493,6.68517 2.6705,12.5429 5.1916,18.81333 0.806,2.00467 1.9034,3.8795 2.8551,5.81925 0.831,0.88797 1.6619,1.77594 2.4928,2.66391 8.3496,15.70934 -13.8668,27.51735 -22.2163,11.80801 l 0,0 c -0.8452,-2.2656 -1.6904,-4.5312 -2.5355,-6.79681 -0.6665,-2.75328 -1.44167,-5.48251 -1.9995,-8.25985 -1.49727,-7.45466 -2.24086,-14.12101 -3.02035,-21.72056 -1.42087,-13.8528 -2.21068,-27.75151 -2.98358,-41.65233 -0.43152,-7.24715 -1.13042,-19.59089 -1.70547,-26.9667 -0.68626,-8.8022 -1.43605,-17.74322 -3.19364,-26.41558 -0.27132,-1.33876 -0.68426,-2.64486 -1.02639,-3.96729 -1.30149,-19.52239 26.30733,-21.36298 27.60883,-1.84059 z"
       inkscape:connector-curvature="0" />
    <path
       id="path4921"
       d="m 1027.2712,734.80019 c 3.578,16.85356 10.0621,32.92132 16.7097,48.75444 6.8178,15.53435 14.3866,30.78737 23.1247,45.34113 4.0193,6.69442 7.6589,11.93723 11.9886,18.37238 6.496,8.82838 3.3118,4.78186 9.4633,12.20928 9.3434,14.06914 -10.5534,27.28257 -19.8967,13.21343 l 0,0 c -4.8646,-9.13163 -2.3098,-4.31871 -7.6596,-14.44131 -12.0045,-21.98106 -24.2406,-43.8545 -35.1171,-66.42617 -4.9597,-10.04534 -9.7937,-20.15942 -14.9263,-30.1183 -1.6802,-3.26 -4.8305,-9.25763 -6.8721,-12.64897 -0.6938,-1.15234 -1.4851,-2.24305 -2.2276,-3.36458 -7.7013,-17.96978 17.7118,-28.86112 25.4131,-10.89133 z"
       inkscape:connector-curvature="0" />
    <path
       id="path4933"
       d="m 1022.7513,715.78198 c 1.2127,1.24404 2.4521,2.46267 3.6382,3.73212 5.8665,6.27863 11.4278,12.84135 17.2526,19.16044 8.6591,9.39392 10.0374,10.75622 19.2672,20.44811 17.5344,17.77421 35.7241,34.93519 54.8597,50.98356 11.7925,9.88994 15.0991,12.21212 26.9633,21.26901 7.8983,5.49006 11.5672,8.2722 19.4806,13.00179 4.1261,2.46602 8.2862,4.86672 13.0019,5.89232 16.2119,10.02768 2.0306,32.95475 -14.1813,22.92707 l 0,0 c -9.9412,-9.44149 -19.1388,-19.64285 -29.1854,-28.98214 -10.5755,-9.93257 -14.2355,-13.49892 -25.3759,-23.39608 -18.8126,-16.71318 -38.2337,-32.72674 -57.5543,-48.84366 -9.2526,-7.66347 -12.6338,-10.54297 -21.7085,-17.77952 -6.0806,-4.84894 -12.2854,-10.14371 -19.1283,-13.94698 -0.7242,-0.4025 -1.5342,-0.62636 -2.3012,-0.93954 -16.63574,-10.58639 -1.6643,-34.11289 14.9714,-23.5265 z"
       inkscape:connector-curvature="0" />
    <path
       id="path4945"
       d="m 1009.8164,313.71731 c -0.1957,0.52567 -0.4452,1.03433 -0.5871,1.57702 -1.6211,6.20018 -2.3234,12.8263 -3.0387,19.16116 -1.2614,11.173 -1.4032,14.74787 -2.2818,26.52127 -2.7425,42.73848 -3.0538,85.58551 -3.0176,128.39653 -0.01,45.18491 2.2838,90.30535 5.2097,135.37934 1.8282,27.12108 4.862,54.14595 6.2123,81.29811 0.766,10.80056 0.074,21.7001 1.5469,32.4445 0.555,2.00953 0.3339,2.14313 0.6906,0.35139 4.2422,19.99744 -24.0385,25.99668 -28.28061,5.99924 l 0,0 c -0.0574,-3.46985 -0.0882,-1.75163 0.0861,-5.15478 0.34631,-11.1724 1.21047,-22.31856 1.66257,-33.48743 1.04296,-26.87199 0.7321,-53.76161 -0.0465,-80.63979 -1.11728,-45.37096 -2.83317,-90.72919 -3.32556,-136.11421 -0.36709,-42.98655 -0.37939,-85.98201 -1.83854,-128.95105 -0.49855,-17.64805 -1.35134,-35.32973 -0.89616,-52.98228 4.38475,-19.7314 32.2892,-13.53042 27.9044,6.20098 z"
       inkscape:connector-curvature="0" />
    <path
       id="path4957"
       d="m 984.83117,766.99511 c -14.93384,10.09656 -27.18248,23.62888 -39.42486,36.71558 -15.58193,17.48077 -30.15937,35.81067 -44.91104,53.98592 -11.61795,11.81224 -28.32298,-4.61801 -16.70504,-16.43025 l 0,0 c 1.88498,-1.55791 3.81944,-3.05781 5.65493,-4.67373 15.41043,-13.56692 28.84935,-29.26768 41.91682,-45.03744 11.5953,-14.4849 23.16789,-29.03767 33.7269,-44.30237 13.95991,-13.9599 33.70217,5.78239 19.74229,19.74229 z"
       inkscape:connector-curvature="0" />
  </g>
</svg>
